<?xml version="1.0" standalone="no"?>
<!DOCTYPE svg PUBLIC "-//W3C//DTD SVG 20010904//EN"
 "http://www.w3.org/TR/2001/REC-SVG-20010904/DTD/svg10.dtd">
<svg version="1.0" xmlns="http://www.w3.org/2000/svg"
 width="700.000000pt" height="700.000000pt" viewBox="0 0 700.000000 700.000000"
 preserveAspectRatio="xMidYMid meet">
<metadata>
Created by potrace 1.11, written by Peter Selinger 2001-2013
</metadata>
<g transform="translate(0.000000,700.000000) scale(0.100000,-0.100000)"
fill="#000000" stroke="none">
<path d="M3279 6996 c-2 -2 -42 -6 -89 -10 -82 -6 -120 -11 -185 -21 -16 -3
-50 -8 -75 -11 -151 -20 -428 -91 -619 -160 -137 -50 -386 -159 -412 -181 -8
-7 -20 -13 -25 -13 -5 0 -47 -23 -93 -50 -46 -28 -86 -50 -88 -50 -7 0 -243
-159 -288 -194 -705 -542 -1161 -1261 -1336 -2111 -7 -33 -13 -62 -14 -65 0
-3 -4 -27 -9 -55 -4 -27 -9 -63 -12 -79 -3 -16 -7 -50 -9 -75 -3 -25 -8 -82
-12 -126 -15 -152 -7 -633 12 -705 2 -8 6 -40 10 -71 3 -31 8 -67 10 -80 3
-13 7 -38 9 -54 17 -126 142 -569 185 -660 6 -11 22 -49 36 -85 32 -79 155
-325 190 -380 14 -22 25 -42 25 -45 0 -15 207 -311 287 -410 110 -138 376
-406 508 -511 129 -104 345 -256 358 -251 8 2 160 498 154 503 -81 59 -231
176 -261 203 -51 45 -239 233 -286 286 -236 265 -460 651 -575 990 -33 99 -77
253 -89 310 -3 17 -11 53 -17 80 -6 28 -13 64 -15 80 -3 17 -6 39 -9 50 -2 11
-7 49 -10 85 -4 36 -10 90 -15 120 -8 59 -6 492 4 550 3 19 8 55 11 80 49 387
187 799 372 1108 25 42 51 86 57 97 14 25 89 138 96 145 3 3 25 32 49 65 117
158 325 377 471 497 36 29 67 55 70 58 3 3 37 28 75 56 277 201 548 340 855
439 120 38 324 89 400 100 61 8 100 14 130 20 140 26 607 26 780 0 14 -2 54
-9 90 -15 153 -26 111 -49 344 185 114 114 206 209 204 210 -13 13 -362 94
-473 111 -27 4 -52 8 -55 9 -3 1 -41 5 -85 10 -44 4 -89 10 -100 12 -26 4
-532 13 -536 9z"/>
<path d="M4980 6898 c-47 -51 -114 -124 -150 -162 -36 -38 -77 -83 -92 -99
-14 -15 -66 -71 -115 -124 -48 -53 -101 -111 -118 -128 -16 -18 -75 -81 -130
-141 -55 -59 -129 -140 -165 -178 -126 -136 -168 -181 -191 -207 -13 -15 -72
-78 -130 -140 -58 -63 -165 -179 -239 -259 -73 -80 -165 -179 -204 -221 -39
-41 -116 -125 -171 -184 -55 -60 -125 -137 -156 -170 -31 -33 -83 -89 -115
-124 -32 -36 -75 -81 -94 -102 -29 -31 -101 -108 -240 -259 -34 -37 -231 -250
-250 -270 -8 -9 -62 -67 -120 -130 -58 -63 -114 -124 -125 -136 -11 -11 -67
-72 -125 -135 -58 -62 -129 -140 -159 -171 -31 -33 -48 -58 -40 -59 8 0 253
-2 544 -3 292 -2 533 -4 537 -4 4 -1 0 -21 -8 -44 -17 -47 -231 -670 -269
-783 -71 -210 -137 -402 -145 -420 -5 -11 -36 -101 -69 -200 -33 -99 -85 -252
-115 -340 -30 -88 -106 -311 -169 -495 -204 -594 -365 -1063 -386 -1124 -28
-80 -27 -83 17 -34 20 22 57 62 82 88 39 41 190 203 276 296 16 17 76 82 134
145 58 62 133 143 167 179 33 36 73 79 89 95 37 41 222 241 259 280 29 31 208
224 269 289 88 95 250 269 307 331 36 38 79 84 94 100 49 54 208 225 244 264
20 21 81 87 136 146 154 167 320 345 386 416 19 20 79 84 134 144 55 59 111
120 125 135 14 15 68 74 122 131 53 57 118 127 145 156 112 119 228 246 231
252 1 3 -249 6 -557 5 l-558 -1 48 141 c61 180 145 427 252 736 46 135 108
315 136 400 29 85 56 164 61 175 5 11 23 63 40 115 18 52 77 226 132 385 55
160 111 322 123 360 13 39 60 176 105 305 45 129 92 267 105 305 13 39 62 181
109 318 47 136 84 247 83 247 -2 0 -41 -41 -87 -92z"/>
<path d="M5176 6533 c-10 -43 -91 -315 -122 -411 -8 -23 -14 -46 -14 -51 0 -4
46 -39 103 -76 98 -65 194 -136 247 -181 14 -12 50 -43 80 -69 73 -62 255
-247 305 -310 22 -28 43 -52 46 -55 3 -3 33 -42 68 -88 182 -241 344 -550 441
-842 38 -113 83 -281 95 -350 3 -19 8 -42 10 -50 4 -14 6 -27 20 -130 20 -146
29 -279 28 -425 0 -114 -10 -291 -18 -334 -2 -11 -6 -44 -9 -73 -4 -29 -9 -64
-11 -78 -3 -14 -10 -47 -15 -75 -5 -27 -11 -59 -14 -70 -2 -11 -9 -42 -16 -70
-26 -118 -101 -345 -146 -443 -13 -29 -24 -55 -24 -58 0 -6 -78 -163 -119
-238 -119 -218 -299 -460 -480 -643 -93 -95 -264 -247 -300 -267 -9 -5 -22
-16 -29 -23 -26 -26 -198 -141 -292 -195 -214 -124 -383 -200 -605 -271 -95
-30 -126 -39 -180 -53 -70 -17 -252 -52 -315 -60 -19 -3 -48 -7 -65 -9 -139
-18 -381 -23 -560 -12 -97 7 -120 9 -215 22 -70 10 -287 54 -314 65 -23 8 -41
-7 -225 -191 -111 -110 -201 -204 -201 -208 0 -5 8 -11 17 -14 10 -2 79 -23
153 -45 199 -59 395 -102 544 -118 28 -3 65 -7 81 -9 187 -27 631 -22 835 10
19 3 53 8 75 11 103 15 312 60 420 91 504 144 991 414 1379 763 82 74 217 210
286 290 36 41 68 77 71 80 3 3 43 55 89 115 262 346 460 737 575 1138 52 185
97 398 111 527 3 30 7 66 10 80 22 126 22 612 0 750 -3 14 -7 48 -10 75 -56
506 -272 1070 -584 1525 -193 282 -477 583 -751 794 -128 98 -416 286 -440
286 -5 0 -12 -12 -15 -27z"/>
</g>
</svg>
